# xmcd CD database file
#
# Track frame offsets:
#	150
#	14675
#	30252
#	45072
#	60693
#	73025
#	87791
#	101823
#	115190
#	129102
#	143691
#	159518
#	173071
#	188931
#	204192
#	220434
#	234577
#	249550
#	263738
#	283301
#	299683
#	313252
#
# Disc length: 4372 seconds
#
# Revision: 0
# Processed by: cddbd v1.5.2PL0 Copyright (c) Steve Scherf et al.
# Submitted via: CDex 1.70beta2
#
DISCID=40111216
DTITLE=Vernon Dalhart - Ballads and Railroad Songs
DYEAR=2000
DGENRE=Country
TTITLE0=The Little Green Valley
TTITLE1=Jim Blake
TTITLE2=Little Birdie
TTITLE3=Wanderin'
TTITLE4=Down On The Farm
TTITLE5=The Singking Of The Titanic
TTITLE6=The Sad Lover
TTITLE7=The Lightning Express
TTITLE8=Putting On The Style
TTITLE9=The Engineer's Child
TTITLE10=We Sat Beneath The Maple On The Hill
TTITLE11=Casey Jones
TTITLE12=Bill Richardson's Last Ride
TTITLE13=In The Hills Of Old Kentycky
TTITLE14=Hallelujah - There's A Rainbow in The Sky
TTITLE15=Little Mary Phagen
TTITLE16=In The Baggage Coach Ahead
TTITLE17=The Freight Wreck AT Altoona
TTITLE18=Runaway Train
TTITLE19=New River Train
TTITLE20=The Great American Bum
TTITLE21=Big Rock Candy Mountain
EXTD=YEAR: 2000
EXTT0=
EXTT1=
EXTT2=
EXTT3=
EXTT4=
EXTT5=
EXTT6=
EXTT7=
EXTT8=
EXTT9=
EXTT10=
EXTT11=
EXTT12=
EXTT13=
EXTT14=
EXTT15=
EXTT16=
EXTT17=
EXTT18=
EXTT19=
EXTT20=
EXTT21=
PLAYORDER=
